<mxfile host="app.diagrams.net" modified="2020-08-31T02:39:19.838Z" agent="5.0 (Windows NT 10.0; Win64; x64) AppleWebKit/537.36 (KHTML, like Gecko) Chrome/85.0.4183.83 Safari/537.36" etag="z7fqzI19vi9ISQQI96TM" version="13.6.5" type="github">
  <diagram id="aLHw3DVSxG8sP9D7eX_y" name="Page-1">
    <mxGraphModel dx="782" dy="437" grid="1" gridSize="10" guides="1" tooltips="1" connect="1" arrows="1" fold="1" page="1" pageScale="1" pageWidth="827" pageHeight="1169" math="0" shadow="0">
      <root>
        <mxCell id="0" />
        <mxCell id="1" parent="0" />
        <mxCell id="49rVWOdr1RzzTl4SXJag-1" value="Cliente" style="shape=umlActor;verticalLabelPosition=bottom;verticalAlign=top;html=1;outlineConnect=0;" vertex="1" parent="1">
          <mxGeometry x="80" y="480" width="30" height="60" as="geometry" />
        </mxCell>
        <mxCell id="49rVWOdr1RzzTl4SXJag-2" value="Vendedor" style="shape=umlActor;verticalLabelPosition=bottom;verticalAlign=top;html=1;outlineConnect=0;" vertex="1" parent="1">
          <mxGeometry x="630" y="380" width="30" height="60" as="geometry" />
        </mxCell>
        <mxCell id="49rVWOdr1RzzTl4SXJag-3" value="Gerente" style="shape=umlActor;verticalLabelPosition=bottom;verticalAlign=top;html=1;outlineConnect=0;" vertex="1" parent="1">
          <mxGeometry x="640" y="680" width="30" height="60" as="geometry" />
        </mxCell>
        <mxCell id="49rVWOdr1RzzTl4SXJag-4" value="Sistema" style="shape=umlActor;verticalLabelPosition=bottom;verticalAlign=top;html=1;outlineConnect=0;" vertex="1" parent="1">
          <mxGeometry x="630" y="880" width="30" height="60" as="geometry" />
        </mxCell>
        <mxCell id="49rVWOdr1RzzTl4SXJag-13" value="Caso de Uso Compra" style="text;align=center;fontStyle=1;verticalAlign=middle;spacingLeft=3;spacingRight=3;strokeColor=none;rotatable=0;points=[[0,0.5],[1,0.5]];portConstraint=eastwest;" vertex="1" parent="1">
          <mxGeometry x="330" y="160" width="80" height="26" as="geometry" />
        </mxCell>
        <mxCell id="49rVWOdr1RzzTl4SXJag-15" value="Navegar pelo catalogo" style="ellipse;whiteSpace=wrap;html=1;" vertex="1" parent="1">
          <mxGeometry x="304" y="335" width="140" height="70" as="geometry" />
        </mxCell>
        <mxCell id="49rVWOdr1RzzTl4SXJag-16" value="" style="endArrow=none;html=1;entryX=0;entryY=0.5;entryDx=0;entryDy=0;" edge="1" parent="1" target="49rVWOdr1RzzTl4SXJag-15">
          <mxGeometry width="50" height="50" relative="1" as="geometry">
            <mxPoint x="120" y="480" as="sourcePoint" />
            <mxPoint x="140" y="500" as="targetPoint" />
          </mxGeometry>
        </mxCell>
        <mxCell id="49rVWOdr1RzzTl4SXJag-19" value="Extends" style="endArrow=block;endSize=16;endFill=0;html=1;" edge="1" parent="1">
          <mxGeometry width="160" relative="1" as="geometry">
            <mxPoint x="650" y="660" as="sourcePoint" />
            <mxPoint x="644.5" y="470" as="targetPoint" />
          </mxGeometry>
        </mxCell>
        <mxCell id="49rVWOdr1RzzTl4SXJag-20" value="" style="endArrow=none;html=1;exitX=1;exitY=0.5;exitDx=0;exitDy=0;" edge="1" parent="1" source="49rVWOdr1RzzTl4SXJag-15">
          <mxGeometry width="50" height="50" relative="1" as="geometry">
            <mxPoint x="380" y="530" as="sourcePoint" />
            <mxPoint x="620" y="410" as="targetPoint" />
          </mxGeometry>
        </mxCell>
        <mxCell id="49rVWOdr1RzzTl4SXJag-21" value="Fazer login" style="ellipse;whiteSpace=wrap;html=1;" vertex="1" parent="1">
          <mxGeometry x="300" y="230" width="140" height="70" as="geometry" />
        </mxCell>
        <mxCell id="49rVWOdr1RzzTl4SXJag-22" value="" style="endArrow=none;html=1;entryX=1;entryY=0.714;entryDx=0;entryDy=0;entryPerimeter=0;" edge="1" parent="1" target="49rVWOdr1RzzTl4SXJag-21">
          <mxGeometry width="50" height="50" relative="1" as="geometry">
            <mxPoint x="620" y="370" as="sourcePoint" />
            <mxPoint x="510" y="280" as="targetPoint" />
          </mxGeometry>
        </mxCell>
        <mxCell id="49rVWOdr1RzzTl4SXJag-26" value="Fazer Relatório" style="ellipse;whiteSpace=wrap;html=1;" vertex="1" parent="1">
          <mxGeometry x="430" y="720" width="140" height="70" as="geometry" />
        </mxCell>
        <mxCell id="49rVWOdr1RzzTl4SXJag-27" value="Manter Cliente" style="ellipse;whiteSpace=wrap;html=1;" vertex="1" parent="1">
          <mxGeometry x="420" y="630" width="140" height="70" as="geometry" />
        </mxCell>
        <mxCell id="49rVWOdr1RzzTl4SXJag-28" value="" style="endArrow=none;html=1;entryX=0.995;entryY=0.705;entryDx=0;entryDy=0;entryPerimeter=0;" edge="1" parent="1" target="49rVWOdr1RzzTl4SXJag-27">
          <mxGeometry width="50" height="50" relative="1" as="geometry">
            <mxPoint x="620" y="700" as="sourcePoint" />
            <mxPoint x="560" y="600" as="targetPoint" />
          </mxGeometry>
        </mxCell>
        <mxCell id="49rVWOdr1RzzTl4SXJag-29" value="" style="endArrow=none;html=1;exitX=1;exitY=0.5;exitDx=0;exitDy=0;" edge="1" parent="1" source="49rVWOdr1RzzTl4SXJag-26">
          <mxGeometry width="50" height="50" relative="1" as="geometry">
            <mxPoint x="380" y="710" as="sourcePoint" />
            <mxPoint x="620" y="720" as="targetPoint" />
          </mxGeometry>
        </mxCell>
        <mxCell id="49rVWOdr1RzzTl4SXJag-30" value="Colocar item no carrinho" style="ellipse;whiteSpace=wrap;html=1;" vertex="1" parent="1">
          <mxGeometry x="310" y="420" width="140" height="70" as="geometry" />
        </mxCell>
        <mxCell id="49rVWOdr1RzzTl4SXJag-32" value="" style="endArrow=none;html=1;entryX=0;entryY=0.629;entryDx=0;entryDy=0;entryPerimeter=0;" edge="1" parent="1" target="49rVWOdr1RzzTl4SXJag-30">
          <mxGeometry width="50" height="50" relative="1" as="geometry">
            <mxPoint x="130" y="500" as="sourcePoint" />
            <mxPoint x="240" y="500" as="targetPoint" />
          </mxGeometry>
        </mxCell>
        <mxCell id="49rVWOdr1RzzTl4SXJag-33" value="" style="endArrow=none;html=1;exitX=1;exitY=0.5;exitDx=0;exitDy=0;" edge="1" parent="1" source="49rVWOdr1RzzTl4SXJag-30">
          <mxGeometry width="50" height="50" relative="1" as="geometry">
            <mxPoint x="490" y="510" as="sourcePoint" />
            <mxPoint x="620" y="430" as="targetPoint" />
          </mxGeometry>
        </mxCell>
        <mxCell id="49rVWOdr1RzzTl4SXJag-34" value="Manter Funcionário" style="ellipse;whiteSpace=wrap;html=1;" vertex="1" parent="1">
          <mxGeometry x="450" y="800" width="140" height="70" as="geometry" />
        </mxCell>
        <mxCell id="49rVWOdr1RzzTl4SXJag-35" value="" style="endArrow=none;html=1;exitX=0.962;exitY=0.21;exitDx=0;exitDy=0;exitPerimeter=0;" edge="1" parent="1" source="49rVWOdr1RzzTl4SXJag-34">
          <mxGeometry width="50" height="50" relative="1" as="geometry">
            <mxPoint x="570" y="760" as="sourcePoint" />
            <mxPoint x="630" y="770" as="targetPoint" />
          </mxGeometry>
        </mxCell>
        <mxCell id="49rVWOdr1RzzTl4SXJag-36" value="Manter produto" style="ellipse;whiteSpace=wrap;html=1;" vertex="1" parent="1">
          <mxGeometry x="240" y="730" width="140" height="70" as="geometry" />
        </mxCell>
        <mxCell id="49rVWOdr1RzzTl4SXJag-37" value="Verificar dados do cartão" style="ellipse;whiteSpace=wrap;html=1;" vertex="1" parent="1">
          <mxGeometry x="280" y="590" width="140" height="70" as="geometry" />
        </mxCell>
        <mxCell id="49rVWOdr1RzzTl4SXJag-38" value="Pagar com Cartão de crédito" style="ellipse;whiteSpace=wrap;html=1;" vertex="1" parent="1">
          <mxGeometry x="140" y="630" width="140" height="70" as="geometry" />
        </mxCell>
        <mxCell id="49rVWOdr1RzzTl4SXJag-39" value="Pagar com Cartão de débito" style="ellipse;whiteSpace=wrap;html=1;" vertex="1" parent="1">
          <mxGeometry x="70" y="740" width="140" height="70" as="geometry" />
        </mxCell>
        <mxCell id="49rVWOdr1RzzTl4SXJag-40" value="Realizar pagamento" style="ellipse;whiteSpace=wrap;html=1;" vertex="1" parent="1">
          <mxGeometry x="240" y="500" width="140" height="70" as="geometry" />
        </mxCell>
        <mxCell id="49rVWOdr1RzzTl4SXJag-42" value="Controlar estoque" style="ellipse;whiteSpace=wrap;html=1;" vertex="1" parent="1">
          <mxGeometry x="280" y="840" width="140" height="70" as="geometry" />
        </mxCell>
        <mxCell id="49rVWOdr1RzzTl4SXJag-43" value="Finalizar Compra" style="ellipse;whiteSpace=wrap;html=1;" vertex="1" parent="1">
          <mxGeometry x="320" y="950" width="140" height="70" as="geometry" />
        </mxCell>
        <mxCell id="49rVWOdr1RzzTl4SXJag-44" value="Manter Compra" style="ellipse;whiteSpace=wrap;html=1;" vertex="1" parent="1">
          <mxGeometry x="414" y="520" width="140" height="70" as="geometry" />
        </mxCell>
        <mxCell id="49rVWOdr1RzzTl4SXJag-45" value="Pesquisar Produto" style="ellipse;whiteSpace=wrap;html=1;" vertex="1" parent="1">
          <mxGeometry x="50" y="840" width="140" height="70" as="geometry" />
        </mxCell>
        <mxCell id="49rVWOdr1RzzTl4SXJag-46" value="Filtrar Produto" style="ellipse;whiteSpace=wrap;html=1;" vertex="1" parent="1">
          <mxGeometry x="70" y="950" width="140" height="70" as="geometry" />
        </mxCell>
      </root>
    </mxGraphModel>
  </diagram>
</mxfile>
